<svg width="29" height="32" viewBox="0 0 29 32" fill="none" xmlns="http://www.w3.org/2000/svg">
<g clip-path="url(#clip0_45_118)">
<path d="M23.3734 15.2233L23.3175 15.2606L23.2105 15.3271L23.0616 15.4113L22.8208 15.5374L23.0179 16.1018L23.0767 16.2707L23.1814 16.5984L23.2314 16.7614L23.3193 17.0796L23.3612 17.2375L23.4331 17.5507L23.4672 17.7073L23.5237 18.02L23.5496 18.1766L23.5915 18.4934L23.6111 18.6527L23.6388 18.9786L23.6516 19.143L23.6666 19.4821L23.6757 20.011V20.1772L23.6657 20.5063L23.6589 20.6706L23.6356 20.997L23.6224 21.1595L23.586 21.4827L23.5664 21.6438L23.5168 21.9633L23.4904 22.1227L23.4276 22.4386L23.3948 22.5961L23.3188 22.9083L23.2797 23.064L23.1909 23.3726L23.1449 23.526L23.0434 23.8305L22.9911 23.9821L22.8764 24.2825L22.8177 24.4323L22.6902 24.7282L22.6251 24.8757L22.4849 25.167L22.413 25.3122L22.2605 25.599L22.1822 25.7419L22.017 26.0237L21.9323 26.1643L21.7543 26.4415L21.6637 26.5794L21.473 26.8516L21.1726 27.2536L21.0743 27.3806L20.8681 27.6277L20.7634 27.7507L20.5449 27.9896L20.4343 28.108L20.2044 28.3383L20.0883 28.4526L19.848 28.6733L19.7264 28.7826L19.4761 28.9942L19.3495 29.0985L19.0896 29.3001L18.9585 29.3994L18.69 29.5905L18.5548 29.6848L18.2785 29.8646L18.1392 29.9533L17.8552 30.1222L17.7122 30.205L17.4214 30.3621L17.2752 30.439L16.9785 30.5842L16.8292 30.6552L16.5269 30.7872L16.3753 30.8519L16.0681 30.9716L15.9142 31.0294L15.6029 31.1355L15.4467 31.1869L15.1322 31.2793L14.657 31.4017L14.5359 31.43L14.2682 31.4819L14.1303 31.5073L13.8367 31.5529L13.6879 31.5743L13.3783 31.6125L13.2227 31.6303L12.9072 31.6594L12.7497 31.673L12.4388 31.6931L12.2845 31.7017L11.9877 31.7117L11.8416 31.7154L11.569 31.7145L11.4365 31.7122L11.1975 31.6994L10.9963 31.6849L10.5958 31.6407L10.3959 31.6157L9.99854 31.5501L9.80053 31.5151L9.4077 31.4291L9.28298 31.3999L9.2889 31.3976L9.29891 31.3904L9.29982 31.384L9.29891 31.3694L9.29436 31.359L9.28343 31.3367L9.27478 31.3225L9.25476 31.292L9.24156 31.2738L9.16736 31.155L9.10864 31.0499L9.07632 30.9866L9.00895 30.8537L8.97345 30.78L8.90198 30.6288L8.86557 30.5492L8.72036 30.2223L8.65572 30.0639L8.59336 29.9083L8.56605 29.8354L8.51416 29.6948L8.49368 29.6333L8.37897 29.2564L8.3116 29.0015L8.28292 28.8727L8.22784 28.6141L8.20508 28.484L8.16275 28.2236L8.14636 28.0925L8.11632 27.8308L8.10631 27.7001L8.08947 27.4388L8.08582 27.3091L8.08218 27.0497L8.08537 26.9208L8.09493 26.6646L8.10449 26.538L8.15001 26.0988L8.19234 25.8074L8.2192 25.6631L8.27655 25.375L8.31069 25.2325L8.38261 24.948L8.42449 24.8078L8.51097 24.5283L8.55922 24.3904L8.65982 24.1159L8.71535 23.9812L8.82915 23.7131L8.89106 23.5815L9.01851 23.3203L9.08679 23.1924L9.22699 22.9384L9.30164 22.8145L9.45413 22.5692L9.5347 22.4499L9.69902 22.2137L9.78597 22.099L9.96167 21.8728L10.0541 21.7635L10.2412 21.5473L10.3386 21.444L10.5366 21.2391L10.6395 21.1413L10.8479 20.9492L10.9558 20.8577L11.1738 20.6779L11.2867 20.5932L11.4816 20.4512L11.609 20.3642L11.6777 20.3224L11.8189 20.2377L11.9012 20.1936L11.9855 20.1485L12.0319 20.1253L12.127 20.0775L12.1798 20.052L12.2882 20.0001L12.3478 19.9723L12.4716 19.915L12.5399 19.8845L12.6814 19.8207L12.7593 19.7866L12.9209 19.7161L13.0096 19.6774L13.1926 19.5986L13.2937 19.5554L13.5012 19.4666L13.615 19.4184L13.8495 19.3191L13.9774 19.2654L14.2405 19.1543L14.3839 19.0943L14.6042 19.0014L14.7617 18.9349L14.8454 18.8999L15.0161 18.828L15.1058 18.7902L15.2879 18.7137L15.3821 18.6737L15.7699 18.5103L15.9748 18.4238L16.3899 18.249L16.6034 18.1588L17.4687 17.7933L17.8925 17.6144L18.3126 17.4369L18.5143 17.3518L18.9103 17.1843L19.0951 17.106L20.1885 16.644L20.5376 16.496L20.7037 16.4259L21.0292 16.2885L21.1799 16.2247L21.4726 16.1009L21.6032 16.0454L21.7311 15.9912L21.7907 15.9662L21.9073 15.917L21.9601 15.8947L22.0634 15.851L22.1098 15.8314L22.1986 15.7941L22.2373 15.7777L22.311 15.7463L22.3415 15.7336L22.3989 15.7095L22.4207 15.6999L22.7562 15.5497L22.9679 15.4459L23.068 15.3922L23.2647 15.282L23.3584 15.2242L23.5387 15.1095M8.26289 31.1L8.53146 31.1896L8.24833 31.0963L8.05851 31.0312L8.00616 31.0112M7.51501 30.8164L8.00434 31.0103L7.68343 30.8865L7.49681 30.8114L7.4085 30.7722M7.04753 30.6106L6.94648 30.5637L6.92144 30.551M2.5821 26.9777L2.8188 27.2836L2.94306 27.4329L3.19615 27.7297L3.32907 27.874L3.59854 28.1603L3.73965 28.2996L4.30955 28.8304L4.6159 29.0907L4.57311 29.0571L4.41698 28.9296L4.11427 28.6633L3.96451 28.5286L3.67547 28.2468L3.53254 28.1039L3.25851 27.8071L2.86432 27.3455L2.71865 27.1653L2.51609 26.8894M2.44508 26.7929L2.44281 26.7897L2.30716 26.5999L2.26619 26.5362M1.02079 24.1455L1.00986 24.1196L0.995298 24.0782M0.622496 22.8737L0.719907 23.2438L0.774985 23.4259L0.862382 23.7017L0.856009 23.684L0.782723 23.4659L0.65709 23.0267L0.601101 22.7877M0.343463 18.6746L0.32571 18.8603L0.295212 19.2322L0.286109 19.4193L0.272908 19.7948V19.9833L0.287019 20.5768L0.310689 20.9687L0.329352 21.1631L0.371685 21.5505L0.399451 21.7417L0.459992 22.1236L0.497318 22.3125L0.564231 22.6297L0.502325 22.3666L0.454985 22.1299L0.381699 21.6556L0.348925 21.418L0.304316 20.9437L0.285653 20.707L0.269722 20.2336L0.265625 19.9974L0.27746 19.5272L0.287019 19.2923L0.327076 18.8252L0.350746 18.5922L0.386251 18.3491M0.430404 18.0523L0.45544 17.8994L0.476379 17.7979M0.600646 17.2175L0.584259 17.2876L0.600646 17.2157L0.604743 17.1993M23.6042 15.064L23.5583 15.0959L23.6142 15.0567M24.7745 13.9556L24.6985 14.0412L24.9484 13.7294M25.135 13.4635L25.0231 13.6324L24.9557 13.7198L25.1355 13.4622M2.27075 13.4412L2.29715 13.4003L2.34312 13.3365M25.4446 12.9428L25.3499 13.1203L25.2579 13.2673L25.268 13.2505L25.445 12.9414M2.75461 12.7776L2.62352 12.9487L2.71319 12.8281L2.76281 12.7671M25.6253 12.5832L25.5042 12.8244L25.5383 12.7543L25.6949 12.4152M2.99268 12.4853L3.01271 12.4607L3.025 12.4466M26.0136 11.4489L25.9057 11.8335L25.847 12.0242L25.7022 12.3979L25.6967 12.4116L25.7627 12.2391L25.8888 11.8872L25.9403 11.7083L26.0336 11.3501M26.1228 10.8612L26.0532 11.2536L26.0359 11.3387L26.0686 11.1657L26.1283 10.8052M26.1428 10.6627L26.1346 10.746L26.1451 10.6354M26.1733 10.2654L26.1524 10.5367L26.1733 10.2476M26.1142 9.17745L26.1183 9.21523L26.1142 9.17699M25.7901 8.0249L25.8597 8.22018L25.8934 8.31577L25.9507 8.49694L25.9781 8.58661L26.0245 8.75822L26.0445 8.83697L26.024 8.75776L25.9781 8.58615L25.9507 8.49694L25.8934 8.31577L25.8597 8.22018L25.7896 8.0249H25.7901Z" fill="#0131B9"/>
<path d="M19.1238 10.7396L19.1479 10.7469L19.1561 10.7537L19.498 11.0423L19.7123 11.2303L19.8139 11.3227L20.0128 11.5062L20.1075 11.5977L20.2932 11.7797L20.3824 11.8708L20.7274 12.2372L20.889 12.427L21.2067 12.8121L21.362 13.0188L21.5258 13.2454L21.6387 13.4089L21.6956 13.4949L21.9241 13.8499L22.0334 14.0329L22.2464 14.398L22.3388 14.5705L22.428 14.7403L22.4676 14.82L22.5432 14.9756L22.575 15.0466L22.6543 15.2242L22.7025 15.3298L22.7221 15.373L22.7585 15.4513L22.7708 15.4773L22.7822 15.5L22.7858 15.5078L22.7922 15.5196L22.7931 15.5214L22.8131 15.5219L22.7558 15.5496L22.4203 15.6998L22.3984 15.7094L22.3411 15.7335L22.3106 15.7463L22.2368 15.7777L22.1982 15.7941L22.1094 15.8314L22.063 15.851L21.9596 15.8947L21.9068 15.917L21.7903 15.9661L21.7307 15.9912L21.6028 16.0453L21.4721 16.1009L21.1794 16.2247L21.0288 16.2884L20.7033 16.4259L20.5372 16.496L20.188 16.6439L19.0947 17.1059L18.9098 17.1842L18.5138 17.3517L18.3122 17.4369L17.892 17.6144L17.4682 17.7933L16.6029 18.1588L16.3894 18.2489L15.9743 18.4237L15.7695 18.5102L15.3816 18.6736L15.2874 18.7137L15.1053 18.7901L15.0157 18.8279L14.845 18.8998L14.7612 18.9349L14.6037 19.0014L14.3834 19.0942L14.24 19.1543L13.9769 19.2654L13.849 19.3191L13.6146 19.4183L13.5008 19.4666L13.2932 19.5553L13.1922 19.5986L13.0092 19.6773L12.9204 19.716L12.7588 19.7866L12.681 19.8207L12.5394 19.8844L12.4712 19.9149L12.3473 19.9723L12.2877 20L12.1794 20.0519L12.1266 20.0774L12.0314 20.1252L11.985 20.1484L11.9008 20.1935L11.8184 20.2377L11.6773 20.3223L11.6086 20.3642L11.4811 20.4511L11.2863 20.5932L11.1734 20.6778L10.9554 20.8576L10.8475 20.9491L10.639 21.1412L10.5361 21.2391L10.3381 21.4439L10.2407 21.5472L10.0536 21.7635L9.96122 21.8727L9.78552 22.0989L9.69858 22.2136L9.53425 22.4499L9.45368 22.5691L9.3012 22.8145L9.22654 22.9383L9.08634 23.1923L9.01807 23.3202L8.89061 23.5815L8.82871 23.713L8.71491 23.9812L8.65937 24.1159L8.55878 24.3904L8.51053 24.5283L8.42404 24.8078L8.38216 24.948L8.31024 25.2325L8.2761 25.375L8.21875 25.6631L8.19189 25.8074L8.14956 26.0987L8.10404 26.538L8.09448 26.6645L8.08492 26.9208L8.08174 27.0496L8.08538 27.3091L8.08902 27.4388L8.10586 27.7001L8.11587 27.8307L8.14592 28.0924L8.1623 28.2235L8.20464 28.4839L8.2274 28.6141L8.28248 28.8726L8.31115 29.0015L8.37852 29.2564L8.49323 29.6333L8.51371 29.6947L8.5656 29.8354L8.59292 29.9082L8.65528 30.0639L8.71991 30.2223L8.86512 30.5491L8.90154 30.6288L8.973 30.7799L9.00851 30.8536L9.07587 30.9866L9.10819 31.0498L9.16691 31.155L9.24111 31.2738L9.25431 31.292L9.27434 31.3225L9.28299 31.3366L9.29391 31.3589L9.29846 31.3694L9.29937 31.3839L9.29846 31.3903L9.28845 31.3976L9.28208 31.4003L9.26023 31.4008L9.24794 31.3999L9.21334 31.394L9.19422 31.3899L9.14643 31.3776L9.12048 31.3707L9.05767 31.353L8.93385 31.317L8.96117 31.3129L8.97027 31.3056L8.96936 31.2993L8.9639 31.2856L8.9557 31.2761L8.93568 31.2556L8.9202 31.2428L8.88606 31.2155L8.86284 31.1996L8.81368 31.1654L8.78319 31.1454L8.71855 31.104L8.68031 31.0808L8.6002 31.0316L8.55422 31.0048L8.13772 30.7385L7.86097 30.5427L7.72441 30.4371L7.4522 30.2205L7.31929 30.1053L7.05482 29.8709L6.92691 29.748L6.67383 29.4985L6.55229 29.3693L6.31377 29.108L6.20088 28.9742L5.97966 28.7047L5.87678 28.5677L5.6765 28.2923L5.58546 28.1539L5.52492 28.0588L5.47986 27.985L5.45573 27.9445L5.35559 27.7724L5.30279 27.6773L5.19627 27.4839L5.14529 27.3869L5.0456 27.1944L5.00236 27.107L4.82211 26.7173L4.71195 26.4551L4.66142 26.3231L4.56447 26.0582L4.52077 25.9248L4.43701 25.6576L4.39969 25.5233L4.32868 25.2543L4.29772 25.1191L4.23946 24.8483L4.21533 24.7126L4.16982 24.4409L4.15161 24.3048L4.11883 24.0326L4.107 23.896L4.08651 23.6234L4.0806 23.4873L4.07286 23.2146L4.07331 23.0785L4.07741 22.8063L4.08378 22.6707L4.10017 22.3998L4.11292 22.2646L4.17528 21.7261L4.22444 21.4598L4.33459 20.93L4.40697 20.6692L4.5631 20.1503L4.65824 19.8967L4.86034 19.3933L4.97778 19.1484L5.09795 18.9044L5.16259 18.7842L5.29368 18.5457L5.36378 18.4283L5.5058 18.1952L5.58091 18.0805L5.73431 17.8534L5.81442 17.7418L5.97829 17.5211L6.06432 17.4127L6.23821 17.1983L6.32925 17.0941L6.51405 16.887L6.6101 16.7859L6.80538 16.5866L6.90643 16.4896L7.11172 16.298L7.21778 16.2056L7.43309 16.0221L7.54461 15.9338L7.76993 15.759L7.886 15.6753L8.12134 15.51L8.24242 15.4313L8.37033 15.3471L8.44817 15.2965L8.48731 15.272L8.5656 15.2233L8.60885 15.1982L8.69807 15.1472L8.75041 15.1195L8.86057 15.0617L8.92703 15.0289L9.06905 14.9597L9.15508 14.9192L9.24384 14.8782L9.293 14.8555L9.39405 14.8095L9.44959 14.7845L9.56384 14.733L9.6262 14.7052L9.75502 14.6483L9.82558 14.6174L9.97033 14.5541L10.0491 14.5195L10.2107 14.449L10.2985 14.4112L10.4788 14.3334L10.5766 14.2915L10.7765 14.2054L10.8844 14.159L11.1056 14.0643L11.2244 14.0138L11.4679 13.91L11.5985 13.8545L11.8657 13.7407L12.0087 13.6802L12.3005 13.5563L12.4561 13.4903L12.7743 13.3556L12.9436 13.2837L13.2891 13.1376L13.473 13.0597L13.8472 12.9018L14.0457 12.8176L14.4499 12.6469L14.6638 12.5567L15.0994 12.3724L15.3298 12.2754L15.7982 12.0774L16.0449 11.9732L16.5469 11.7615L16.8114 11.6495L17.349 11.4229L17.6312 11.3036L17.8556 11.2089L17.9931 11.1511L18.0564 11.1247L18.1793 11.0737L18.2352 11.0505L18.3436 11.0054L18.3927 10.9854L18.4879 10.9463L18.5311 10.929L18.614 10.8957L18.6513 10.8812L18.7888 10.8279L18.8425 10.8084L18.9408 10.7742L18.9777 10.7633L19.0441 10.7455L19.0678 10.7419L19.1097 10.7378M8.03485 31.0212L8.00526 31.0107L7.91923 30.9765M7.31519 30.7339L7.2724 30.7162L7.20549 30.6848M6.65926 30.4253L6.58051 30.3866L6.51132 30.3484M6.05659 30.0957L5.92367 30.0193L5.86176 29.9797M5.29778 29.6087L5.5099 29.753L5.50489 29.7498L5.29778 29.6114L5.23041 29.5614M4.76384 29.2095L4.94319 29.3479L4.89585 29.3128L4.69693 29.1599L4.64413 29.1148M4.38512 28.895L4.3091 28.8303L4.29181 28.8144M0.272461 19.9832V19.7948ZM24.3671 14.4153L24.2898 14.494L24.1314 14.6424L24.0517 14.7153L23.8869 14.8518L23.8036 14.9187L23.632 15.0435L23.6739 15.013L23.9547 14.7931L24.1354 14.6379L24.2219 14.5559L24.3721 14.4098M24.5205 14.2537L24.4869 14.2887L24.5579 14.2114M25.1701 13.412L25.1505 13.4398L25.202 13.3592M25.455 12.9232L25.4496 12.9332L25.476 12.8808M25.6954 12.4138L25.6649 12.4794L25.7254 12.3355M25.9398 11.7083L25.8884 11.8872L25.8725 11.9313L25.9025 11.8344L25.9416 11.6996M26.0336 11.3478L26.0067 11.4506L26.0486 11.2699M26.1465 10.6163L26.1287 10.8002L26.1183 10.8652L26.1283 10.781L26.1465 10.6135M26.1515 9.51424L26.1588 9.60073L26.1674 9.78007L26.1729 10.0632V10.2476L26.1642 10.3659L26.1729 10.1852V10.0655L26.1674 9.78144L26.1588 9.60164L26.1515 9.51515L26.1178 9.21518M26.0809 9.00989L26.1137 9.17694L26.0809 9.01034L26.0646 8.93341" fill="#1474EA"/>
<path d="M12.432 8.313L12.803 8.33075L12.9892 8.34668L13.3611 8.3831L13.5472 8.40813L13.9191 8.46276L14.1048 8.49735L14.4763 8.57018L14.6615 8.61388L15.0307 8.70537L15.215 8.75772L15.5819 8.86742L15.7645 8.92887L16.1359 9.06042L16.3776 9.15237L16.4932 9.1988L16.7199 9.29257L16.8255 9.339L17.0304 9.43095L17.1218 9.4751L17.2971 9.56205L17.3713 9.60256L17.5097 9.68085L17.5629 9.71545L17.613 9.74958L17.6335 9.76506L17.6717 9.79556L17.6858 9.80922L17.7109 9.83562L17.7182 9.847L17.7291 9.86885V9.87795L17.6999 9.91846L17.6521 9.95306L17.6148 9.97399L17.5324 10.0177L17.4792 10.0423L17.3649 10.0933L17.2966 10.1206L15.9124 10.6855L15.0116 11.056L14.5782 11.2362L14.1476 11.4151L13.9378 11.5025L13.5222 11.6764L13.3205 11.7611L12.9218 11.9286L12.7292 12.0101L12.3496 12.1708L12.1675 12.2481L11.8093 12.4011L11.6391 12.4744L11.3045 12.6182L11.147 12.6865L10.8384 12.8203L10.6945 12.8831L10.4146 13.0065L10.2858 13.0634L10.0363 13.1749L9.92344 13.2254L9.70677 13.3238L9.61164 13.3679L9.43047 13.4526L9.35354 13.4894L9.2097 13.5591L9.1528 13.5882L8.53192 13.9201L8.13363 14.1508L7.94245 14.2706L7.56464 14.5136L7.38393 14.6393L7.02706 14.8942L6.85681 15.0257L6.52088 15.292L6.36111 15.4295L6.04657 15.7076L5.89772 15.8505L5.60458 16.14L5.4662 16.2884L5.19445 16.5888L5.067 16.7432L4.81755 17.0541L4.70057 17.2138L4.47297 17.5356L4.36737 17.7004L4.16162 18.0327L4.06694 18.203L3.8835 18.5457L3.79974 18.7205L3.63861 19.0733L3.56669 19.2535L3.42831 19.6159L3.36731 19.8011L3.25124 20.1735L3.20208 20.3628L3.10922 20.7447L3.07144 20.9391L3.03502 21.169L3.01454 21.3461L3.00634 21.4435L2.99041 21.6433L2.9845 21.7484L2.97403 21.9624L2.97084 22.0707L2.96356 22.5077L2.96856 22.7103L2.97539 22.9092L2.98085 22.9998L2.9936 23.175L3.0027 23.2501L3.09784 23.8601L3.18387 24.2657L3.23804 24.4669L3.35411 24.8688L3.42284 25.0677L3.56714 25.4637L3.65044 25.6595L3.82296 26.0486L3.91991 26.2403L4.1202 26.6208L4.2299 26.807L4.45704 27.1766L4.57994 27.3569L4.83303 27.7146L4.96868 27.8881L5.36333 28.3619L5.49989 28.5153L5.5668 28.5877L5.69926 28.7293L5.76117 28.793L5.88225 28.9154L5.93642 28.9669L6.03929 29.0629L6.08208 29.0989L6.12304 29.133L6.1408 29.1462L6.17448 29.1708L6.18814 29.1795L6.21363 29.1936L6.22319 29.1968L6.24003 29.2004L6.24504 29.1972L6.27644 29.1845L6.27918 29.1904L6.27007 29.2009L6.25915 29.2427L6.26825 29.2769L6.28054 29.2914L6.31195 29.3197L6.33243 29.3292L6.37522 29.3451H6.39434L6.41937 29.3392L6.42848 29.3297L6.42893 29.3215L6.42666 29.3024L6.42119 29.2887L6.40708 29.2591L6.39525 29.2395L6.36794 29.1977L6.34973 29.1722L6.30876 29.1166L6.28327 29.0834L6.22774 29.0133L6.19451 28.9723L6.12395 28.8863L6.08299 28.8367L6.00743 28.7388L6.20088 28.9742L6.31377 29.108L6.55229 29.3693L6.67383 29.4985L6.92691 29.748L7.05482 29.8709L7.31929 30.1053L7.4522 30.2205L7.72441 30.4372L7.86097 30.5428L8.13772 30.7385L8.55422 31.0048L8.6002 31.0316L8.68031 31.0808L8.71855 31.104L8.78319 31.1454L8.81368 31.1655L8.86284 31.1996L8.88606 31.2155L8.9202 31.2428L8.93568 31.2556L8.9557 31.2761L8.9639 31.2856L8.96936 31.2993L8.97027 31.3057L8.96117 31.3129L8.93249 31.3175L8.93021 31.317L8.91337 31.3129L8.90336 31.3102L8.8724 31.3011L8.85511 31.2961L8.81186 31.2824L8.78865 31.2752L8.73403 31.2579L8.67713 31.2397L8.53829 31.1937L8.46546 31.1696L8.30523 31.1149L8.08082 31.0389L7.64885 30.8728L7.43536 30.7877L7.02296 30.6028L6.81903 30.5082L6.42438 30.3033L6.2291 30.1986L5.85038 29.9729L5.66284 29.8568L5.29778 29.6087L5.11661 29.4817L4.76384 29.2095L4.58859 29.0707L4.24538 28.7739L3.7392 28.2996L3.59809 28.1603L3.32862 27.874L3.1957 27.7297L2.94262 27.4329L2.81835 27.2836L2.58165 26.9777L2.46558 26.8234L2.24572 26.5079L2.13829 26.3491L1.93573 26.0245L1.8365 25.8616L1.65124 25.5284L1.56065 25.3609L1.39223 25.0199L1.31075 24.8483L1.16009 24.4996L1.0868 24.3244L0.953883 23.968L0.889701 23.7891L0.774538 23.4258L0.719459 23.2438L0.622048 22.8737L0.576074 22.6884L0.496871 22.3124L0.459545 22.1235L0.399004 21.7416L0.371238 21.5504L0.328905 21.1631L0.310242 20.9687L0.286572 20.5768L0.272461 19.9832V19.7948L0.285662 19.4192L0.294765 19.2321L0.325263 18.8603L0.343016 18.6745L0.391266 18.3063L0.417667 18.1228L0.48276 17.7587L0.517809 17.5771L0.600199 17.2175L0.643442 17.0386L0.742219 16.6844L0.794111 16.5078L0.90973 16.1591L0.96936 15.9857L1.10137 15.643L1.16964 15.4727L1.31804 15.1368L1.39405 14.9697L1.55838 14.6411L1.64213 14.4777L1.82239 14.1563L1.91434 13.997L2.11007 13.6838L2.20976 13.5286L2.42051 13.2241L2.52794 13.0729L2.75417 12.7775L2.86933 12.631L3.11058 12.3451L3.48885 11.9277L3.63633 11.7729L3.94905 11.4725L4.10791 11.3241L4.44111 11.0382L4.60999 10.8971L4.96094 10.6281L5.13846 10.4956L5.50353 10.2457L5.68788 10.1228L6.06432 9.89388L6.25368 9.7819L6.63832 9.5757L6.83087 9.47601L7.22006 9.2953L7.80589 9.05496L7.86233 9.03357L7.96703 8.9926L8.0171 8.97257L8.10267 8.93661L8.14182 8.91931L8.19872 8.89246L8.2406 8.86697L8.24424 8.86196L8.25471 8.85422L8.25198 8.85968L8.25471 8.86242L8.26927 8.86333L8.28976 8.86105L8.30432 8.85877L8.37579 8.84603L8.42632 8.83556L8.53693 8.81143L8.60202 8.79596L8.73903 8.76318L8.81323 8.74407L9.02762 8.69035L9.16009 8.65712L9.22154 8.6421L9.45687 8.58475L9.56065 8.56108L9.76048 8.51647L9.85198 8.49826L10.03 8.46367L10.116 8.44956L10.2867 8.42316L10.3741 8.41178L10.5516 8.39084L10.6477 8.38173L10.8457 8.36398L10.9572 8.35533L11.1902 8.33849L11.3245 8.32939L11.8767 8.30708L12.2463 8.30617M5.87678 28.5677L5.89818 28.5959L5.80714 28.4776L5.7375 28.3765M5.30279 27.6773L5.35559 27.7725L5.36697 27.792L5.35013 27.7643L5.26182 27.6045L5.22267 27.5317M5.16623 27.427L5.08657 27.2781L5.0456 27.1944L5.14529 27.3869M19.2162 4.20261L18.3145 4.58361L17.8702 4.77115L16.988 5.14395L16.5633 5.3233L16.1414 5.50128L15.9365 5.58822L15.53 5.75983L15.3339 5.84267L14.946 6.00654L14.7599 6.08483L14.3939 6.2396L14.22 6.31288L13.8791 6.45718L13.7188 6.525L13.4057 6.65701L13.2609 6.71801L12.9791 6.83727L12.8512 6.89098L12.6041 6.99567L12.4944 7.04165L12.1079 7.20506L11.8626 7.30885L11.7456 7.35801L11.5157 7.45496L11.4065 7.50139L11.1916 7.59197L11.0901 7.63476L10.8898 7.71943L10.7951 7.75949L10.6094 7.83778L10.5216 7.8751L10.3495 7.94794L10.2685 7.98207L10.1092 8.04944L10.0345 8.08085L9.88794 8.14321L9.8192 8.17189L9.68447 8.22879L9.62165 8.25564L9.58478 8.27158L9.70495 8.22059L9.76686 8.19419L9.89977 8.13775L9.9676 8.10907L10.1114 8.04808L10.1852 8.01712L10.3409 7.95112L10.4205 7.91744L10.5885 7.84643L10.6741 7.81047L10.8548 7.73399L10.9467 7.6953L11.1406 7.61337L11.2394 7.57149L11.447 7.48409L11.5526 7.43949L11.7743 7.34572L11.8867 7.29838L12.1229 7.19823L12.4944 7.04165L12.6041 6.99522L12.8512 6.89098L12.9791 6.83681L13.2609 6.71801L13.4057 6.65701L13.7188 6.52455L13.8791 6.45718L14.22 6.31288L14.3939 6.2396L14.7599 6.08483L14.946 6.00654L15.3339 5.84267L15.53 5.75983L15.9365 5.58822L16.1414 5.50128L16.5633 5.3233L16.988 5.14395L17.8702 4.77115L18.3145 4.58361L19.2162 4.20261Z" fill="#24B8F1"/>
<path d="M25.108 6.99159L25.1445 7.01344L25.1663 7.03438L25.2137 7.084L25.2455 7.12041L25.3001 7.19097L25.3429 7.25151L25.3657 7.2861L25.4613 7.4354L25.5068 7.51279L25.551 7.58926L25.571 7.62522L25.6088 7.69486L25.6238 7.72491L25.6511 7.78089L25.6593 7.80183L25.6725 7.83825V7.8469L25.642 7.87785L25.6174 7.89333L25.5997 7.90334L25.5614 7.92428L25.5364 7.93703L25.4822 7.96388L25.4485 7.97981L25.3771 8.0135L25.3343 8.03353L25.2432 8.07495L25.1904 8.09862L25.0785 8.14823L25.0143 8.17646L24.88 8.23563L24.8035 8.26841L24.6447 8.33714L24.5554 8.37583L24.3706 8.45503L24.2673 8.49919L24.0543 8.59023L23.9368 8.6403L23.6938 8.74363L23.5604 8.80007L23.2859 8.91614L23.1362 8.97942L22.8284 9.1096L22.6614 9.18015L22.3186 9.32445L22.1334 9.40274L21.5275 9.65856L21.1429 9.82152L20.9626 9.89799L20.6108 10.0473L20.4505 10.116L20.2926 10.1834L20.2179 10.2153L20.0718 10.2776L20.0035 10.3072L19.8702 10.3641L19.8087 10.391L19.689 10.4424L19.6348 10.4661L19.5297 10.5116L19.4832 10.5316L19.394 10.5708L19.3558 10.5876L19.2834 10.6195L19.2543 10.6327L19.1997 10.6568L19.1796 10.6664L19.1441 10.6827L19.1337 10.6878L19.1182 10.6959V10.6969L19.1286 10.7101L19.1455 10.7274L19.1582 10.7401L19.1869 10.767L19.2056 10.7838L19.2447 10.8198L19.2679 10.8402L19.369 10.9299L19.4295 10.9827L19.5574 11.0929L19.6271 11.1525L20.0691 11.5535L20.3609 11.8444L20.5042 11.9992L20.5238 12.0206L20.3827 11.8708L20.2935 11.7798L20.1078 11.5977L20.0131 11.5062L19.8142 11.3227L19.7127 11.2303L19.4983 11.0423L19.1564 10.7538L19.1482 10.7469L19.1241 10.7396L19.11 10.7378L19.0681 10.7419L19.0444 10.7456L18.978 10.7633L18.9411 10.7742L18.8428 10.8084L18.7891 10.8279L18.6516 10.8812L18.6143 10.8958L18.5314 10.929L18.4882 10.9463L18.3931 10.9854L18.3439 11.0055L18.2356 11.0505L18.1796 11.0738L18.0567 11.1247L17.9934 11.1511L17.8559 11.2089L17.6315 11.3036L17.3493 11.4229L16.8117 11.6496L16.5473 11.7615L16.0452 11.9732L15.7985 12.0775L15.3301 12.2755L15.0997 12.3724L14.6641 12.5568L14.4502 12.6469L14.046 12.8176L13.8475 12.9018L13.4733 13.0598L13.2894 13.1376L12.944 13.2837L12.7746 13.3556L12.4564 13.4904L12.3008 13.5564L12.009 13.6802L11.8661 13.7407L11.5989 13.8545L11.4682 13.9101L11.2247 14.0138L11.1059 14.0644L10.8847 14.159L10.7768 14.2055L10.577 14.2915L10.4791 14.3334L10.2988 14.4112L10.211 14.449L10.0494 14.5196L9.97064 14.5542L9.82589 14.6174L9.75533 14.6484L9.62651 14.7053L9.56415 14.733L9.4499 14.7845L9.39436 14.8095L9.29331 14.8555L9.24415 14.8782L9.15539 14.9192L9.06936 14.9597L8.92734 15.0289L8.86088 15.0617L8.75072 15.1195L8.69838 15.1473L8.60916 15.1982L8.56592 15.2233L8.48762 15.272L8.44848 15.2966L8.37064 15.3471L8.24273 15.4313L8.12165 15.5101L7.88631 15.6753L7.77024 15.759L7.54492 15.9338L7.4334 16.0221L7.21809 16.2056L7.11203 16.298L6.90674 16.4896L6.80569 16.5866L6.61041 16.786L6.51436 16.887L6.32956 17.0941L6.23852 17.1984L6.06464 17.4128L5.9786 17.5211L5.81473 17.7419L5.73462 17.8534L5.58122 18.0805L5.50611 18.1952L5.36409 18.4283L5.29399 18.5457L5.1629 18.7843L5.09826 18.9044L4.97809 19.1484L4.86065 19.3933L4.65855 19.8967L4.56341 20.1503L4.40728 20.6692L4.33491 20.93L4.22475 21.4599L4.17559 21.7262L4.11323 22.2646L4.10048 22.3998L4.08409 22.6707L4.07772 22.8063L4.07363 23.0785L4.07317 23.2146L4.08091 23.4873L4.08683 23.6234L4.10731 23.8961L4.11914 24.0326L4.15192 24.3048L4.17013 24.4409L4.21565 24.7127L4.23977 24.8483L4.29803 25.1192L4.32899 25.2544L4.4 25.5234L4.43732 25.6577L4.52108 25.9249L4.56478 26.0582L4.66173 26.3231L4.71226 26.4551L4.82242 26.7173L5.00267 27.107L5.08688 27.2781L5.26213 27.6045L5.35044 27.7643L5.53206 28.0643L5.62355 28.2104L5.80745 28.4776L6.0833 28.8367L6.12427 28.8863L6.19482 28.9724L6.22805 29.0133L6.28358 29.0834L6.30907 29.1167L6.35004 29.1722L6.36825 29.1977L6.39556 29.2396L6.40739 29.2591L6.42151 29.2887L6.42697 29.3024L6.42924 29.3215L6.42879 29.3297L6.41968 29.3392L6.39465 29.3452H6.37553L6.33274 29.3292L6.31226 29.3197L6.28085 29.2914L6.26856 29.2769L6.25946 29.2427L6.27038 29.2009L6.27949 29.1904L6.27675 29.1845L6.24535 29.1972L6.24034 29.2004L6.2235 29.1968L6.21394 29.1936L6.18845 29.1795L6.17479 29.1708L6.14111 29.1462L6.12335 29.133L6.08239 29.0989L6.0396 29.0629L5.93673 28.9669L5.88256 28.9155L5.76148 28.793L5.69957 28.7293L5.56711 28.5877L5.5002 28.5153L5.36364 28.3619L4.96899 27.8881L4.83334 27.7147L4.58025 27.3569L4.45735 27.1766L4.23021 26.807L4.12051 26.6208L3.92023 26.2403L3.82327 26.0487L3.65075 25.6595L3.56745 25.4637L3.42316 25.0677L3.35442 24.8688L3.23835 24.4669L3.18418 24.2657L3.09815 23.8601L3.00301 23.2501L2.99391 23.175L2.98116 22.9998L2.9757 22.9092L2.96887 22.7103L2.96387 22.5077L2.97115 22.0707L2.97434 21.9624L2.98481 21.7485L2.99072 21.6433L3.00666 21.4435L3.01485 21.3461L3.03533 21.169L3.07175 20.9391L3.10953 20.7448L3.20239 20.3629L3.25155 20.1735L3.36762 19.8012L3.42862 19.6159L3.567 19.2536L3.63892 19.0733L3.80005 18.7205L3.88381 18.5457L4.06725 18.203L4.16193 18.0327L4.36768 17.7004L4.47328 17.5357L4.70088 17.2138L4.81786 17.0541L5.06731 16.7432L5.19476 16.5889L5.46651 16.2884L5.60489 16.14L5.89803 15.8505L6.04688 15.7076L6.36142 15.4295L6.52119 15.292L6.85712 15.0257L7.02737 14.8942L7.38424 14.6393L7.56495 14.5136L7.94276 14.2706L8.13394 14.1509L8.53223 13.9201L9.15311 13.5882L9.21001 13.5591L9.35385 13.4895L9.43078 13.4526L9.61195 13.3679L9.70708 13.3238L9.92375 13.2254L10.0366 13.1749L10.2861 13.0634L10.4149 13.0065L10.6948 12.8831L10.8387 12.8203L11.1473 12.6865L11.3048 12.6182L11.6394 12.4744L11.8096 12.4011L12.1679 12.2481L12.3499 12.1708L12.7296 12.0101L12.9221 11.9286L13.3209 11.7611L13.5225 11.6764L13.9381 11.5025L14.1479 11.4151L14.5785 11.2363L15.0119 11.056L15.9127 10.6855L17.297 10.1206L17.3652 10.0933L17.4795 10.0423L17.5327 10.0177L17.6151 9.97401L17.6525 9.95307L17.7003 9.91848L17.7294 9.87796V9.86886L17.7185 9.84701L17.7112 9.83563L17.6861 9.80923L17.672 9.79557L17.6338 9.76508L17.6133 9.7496L17.5632 9.71546L17.51 9.68087L17.3925 9.61441L17.4217 9.63034L17.5742 9.70863L17.6702 9.75461L17.7125 9.77282L17.7913 9.80604L17.8209 9.81651L17.8723 9.83245H17.8846L17.936 9.82471L17.9834 9.81287L18.0112 9.80422L18.1318 9.76326L18.1923 9.73685L18.2287 9.72183L18.2624 9.70727L18.2843 9.69862L18.3307 9.67905L18.3585 9.66812L18.4167 9.644L18.45 9.63034L18.5933 9.57162L18.6803 9.53657L18.8628 9.46237L18.9671 9.42004L19.1833 9.33264L19.3021 9.28485L19.5461 9.18607L19.6767 9.13327L19.9425 9.02584L20.0823 8.96986L20.3645 8.85606L20.5102 8.79734L21.1019 8.55927L21.401 8.4391L21.9968 8.20013L22.2809 8.08633L22.5617 7.9739L22.6955 7.92018L22.9591 7.81458L23.0824 7.76542L23.3228 7.66937L23.4325 7.62567L23.6446 7.54146L23.7379 7.50459L24.1886 7.32525L24.3279 7.26971L24.3925 7.24422L24.5181 7.19415L24.575 7.17139L24.6843 7.12769L24.7312 7.10903L24.8199 7.07353L24.8559 7.05896L24.921 7.03256L24.9437 7.02345L24.982 7.00798L24.9897 7.00479L25.0548 6.98385L25.0903 6.9834M22.6632 15.2415L22.7137 15.3453L22.7356 15.3867L22.7766 15.4618L22.792 15.485L22.8061 15.5055L22.8112 15.5119L22.8212 15.5214H22.8239L22.8444 15.516L22.8248 15.5223L22.7934 15.5214L22.7925 15.5196L22.7861 15.5078L22.7825 15.5L22.7711 15.4773L22.7588 15.4513L22.7224 15.373L22.7028 15.3298L22.6546 15.2242L22.6532 15.221M23.2855 15.2775L23.2449 15.3016L23.3137 15.2588M23.5804 15.0813L23.4867 15.1441L23.6036 15.0644M21.9345 13.8573L22.0405 14.033L22.2458 14.383L22.3364 14.5555L22.5094 14.8983L22.5417 14.9716L22.4679 14.82L22.4283 14.7403L22.3391 14.5705L22.2467 14.398L22.0337 14.033L21.9244 13.85L21.7419 13.5664M25.2683 13.2555L25.2159 13.3379L25.2751 13.2437M26.1732 10.1852L26.1618 10.4242L26.1545 10.5435L26.1286 10.7811L26.114 10.8999L26.074 11.1361L26.0526 11.254L25.9989 11.4875L25.9702 11.6041L25.9028 11.8344L25.8678 11.9491L25.7872 12.1753L25.7458 12.2878L25.6525 12.509L25.6047 12.6191L25.4995 12.8349L25.4453 12.9423L25.3284 13.1517L25.307 13.1886L25.3379 13.1344L25.4535 12.9255L25.5068 12.8185L25.6106 12.6037L25.6579 12.494L25.7499 12.2732L25.7913 12.1612L25.8705 11.9359L25.9055 11.8216L25.972 11.5927L26.0002 11.4766L26.0535 11.2445L26.0749 11.1275L26.1145 10.8926L26.129 10.7747L26.1545 10.5389L26.1618 10.4206L26.1732 10.1839M17.2027 9.51199L17.2751 9.55114L17.1222 9.47512L17.0935 9.46146M15.0042 8.69492L15.2609 8.76775L15.7698 8.9207L16.0165 9.00946L16.5054 9.19381L16.7403 9.29759L16.9483 9.3941L16.8258 9.33902L16.7202 9.29259L16.4935 9.19882L16.3779 9.15239L16.1362 9.06044L15.7648 8.92889L15.5822 8.86744L15.2154 8.75774L15.031 8.70539L14.8016 8.64849M14.2189 8.51876L14.2758 8.5306L14.1925 8.51421M12.6271 8.32166L12.6403 8.32303L12.608 8.32121L12.6271 8.32166Z" fill="#2BC7FB"/>
<path d="M25.8127 7.81442L25.7863 7.83854L25.7585 7.87633L25.7503 7.92048L25.7904 8.02472L25.86 8.22L25.8937 8.31559L25.9511 8.49675L25.9784 8.58643L26.0248 8.75803L26.0462 8.84315L26.0817 9.01021L26.1145 9.17726L26.1522 9.51502L26.1595 9.6015L26.1682 9.7813L26.1736 10.0653V10.1837L26.1623 10.4204L26.155 10.5387L26.1295 10.7745L26.1149 10.8924L26.0753 11.1273L26.0539 11.2443L26.0007 11.4764L25.9724 11.5925L25.906 11.8215L25.8709 11.9357L25.7917 12.161L25.7503 12.273L25.6584 12.4938L25.611 12.6035L25.5072 12.8183L25.454 12.9253L25.3384 13.1342L25.2792 13.2376L25.1522 13.4392L25.0876 13.5394L24.9501 13.7328L24.88 13.8289L24.732 14.0137L24.6565 14.1052L24.4985 14.2804L24.4184 14.3669L24.2505 14.5321L24.1653 14.6136L23.9887 14.7675L23.7133 14.9851L23.6268 15.0488L23.4388 15.1772L23.3451 15.2395L23.1671 15.3497L23.1248 15.3752L23.0474 15.4198L23.0101 15.4407L22.9463 15.4744L22.9163 15.4894L22.8699 15.509L22.8243 15.5213H22.8216L22.8116 15.5117L22.8066 15.5053L22.7925 15.4849L22.777 15.4616L22.736 15.3865L22.7142 15.3451L22.6637 15.2413L22.6377 15.1867L22.5826 15.0643L22.5098 14.8981L22.3368 14.5554L22.2462 14.3828L22.041 14.0328L21.9349 13.8571L21.7023 13.5061L21.5835 13.3309L21.3286 12.9849L21.1993 12.8133L20.9271 12.4797L20.7892 12.3149L20.5047 11.999L20.3613 11.8442L20.0695 11.5534L19.6275 11.1523L19.5579 11.0927L19.43 10.9826L19.3694 10.9298L19.2684 10.8401L19.2452 10.8196L19.206 10.7836L19.1874 10.7668L19.1587 10.7399L19.1459 10.7272L19.1291 10.7099L19.1186 10.6967V10.6958L19.1341 10.6876L19.1446 10.6826L19.1801 10.6662L19.2001 10.6566L19.2547 10.6325L19.2839 10.6193L19.3562 10.5874L19.3945 10.5706L19.4837 10.5315L19.5301 10.5114L19.6353 10.4659L19.6894 10.4422L19.8091 10.3908L19.8706 10.364L20.004 10.3071L20.0722 10.2775L20.2184 10.2151L20.293 10.1832L20.451 10.1159L20.6112 10.0471L20.9631 9.89783L21.1433 9.82136L21.528 9.6584L22.1338 9.40258L22.3191 9.32429L22.6618 9.18L22.8289 9.10944L23.1366 8.97926L23.2864 8.91598L23.5608 8.79991L23.6942 8.74347L23.9373 8.64014L24.0547 8.59007L24.2678 8.49903L24.3711 8.45488L24.5559 8.37567L24.6451 8.33698L24.804 8.26825L24.8804 8.23547L25.0147 8.1763L25.0789 8.14808L25.1909 8.09846L25.2437 8.07479L25.3347 8.03337L25.3775 8.01334L25.449 7.97965L25.4827 7.96372L25.5368 7.93687L25.5619 7.92412L25.6001 7.90318L25.6179 7.89317L25.6424 7.87769L25.6729 7.84674V7.83809L25.6597 7.80167L25.6538 7.7862L25.703 7.87951L25.8605 7.77391M17.8577 9.82136L17.9524 9.82091L17.9365 9.82455L17.8851 9.83229H17.8728L17.8295 9.81909M17.9838 9.81271L17.9583 9.81909L17.9943 9.80953M18.1322 9.7631L18.1163 9.76856L18.1559 9.75263M17.4217 9.62563L17.4877 9.66387L17.4221 9.63018L17.2405 9.53231M16.9251 9.38256L17.1385 9.48088L17.1663 9.49499L16.9032 9.37254M14.432 8.55775L14.7183 8.62512L14.8503 8.65926L14.482 8.57459L14.2435 8.52361M12.7259 8.32378L13.009 8.34836L13.5767 8.40845L13.8616 8.45442L14.1752 8.51132L13.6895 8.43212L13.4242 8.39342L12.893 8.34244L12.6276 8.3215L12.1123 8.30785L12.1633 8.30648M25.3152 7.20947L25.367 7.28367L25.3939 7.32554L25.5036 7.50216L25.5305 7.55314L25.5072 7.51263L25.4617 7.43524L25.3661 7.28594L25.3434 7.25135L25.301 7.19126M25.2469 7.12162L25.2883 7.17487L25.246 7.12025M27.8374 5.79655L27.7718 5.89988L27.6307 6.10108L27.5583 6.20031L27.4031 6.39468L27.3235 6.49072L27.1541 6.67826L27.1377 6.69465L27.2256 6.59496L27.4027 6.38876L27.486 6.2827L27.6494 6.06876L27.7245 5.96042L27.8651 5.75149M27.9653 5.58762L27.9011 5.69277L27.9361 5.63451L28.0044 5.5157M28.192 5.15018L28.1392 5.26216L28.1291 5.28128L28.2124 5.10466M28.7682 2.76634L28.766 2.85783L28.7569 3.0299L28.7464 3.19923L28.7063 3.51103L28.6831 3.66534L28.6139 3.9685L28.6089 3.98625L28.6167 3.95303L28.6663 3.72179L28.6858 3.60389L28.7214 3.36628L28.7346 3.24475L28.7564 2.99849L28.7628 2.87103L28.7705 2.65527L28.7682 2.76634Z" fill="#479DF8"/>
<path d="M17.5015 9.67204L17.4209 9.62561L17.2347 9.52957L17.1378 9.48086L16.9243 9.38254L16.815 9.33338L16.5811 9.23551L16.4618 9.18635L16.2142 9.09122L15.9638 8.99745L15.4513 8.82857L15.3243 8.78897L15.0757 8.7175L14.7175 8.6251L14.4312 8.55773L13.8608 8.4544L13.5759 8.40843L13.0083 8.34834L12.7251 8.32376L12.1625 8.30647L11.3245 8.32923L11.1902 8.33833L10.9572 8.35517L10.8456 8.36382L10.6476 8.38157L10.5516 8.39068L10.3741 8.41162L10.2867 8.423L10.116 8.4494L10.0299 8.46351L9.85195 8.4981L9.76046 8.51631L9.56063 8.56092L9.45685 8.58459L9.22151 8.64194L9.16006 8.65696L9.0276 8.69019L8.8132 8.74391L8.73901 8.76302L8.602 8.7958L8.5369 8.81127L8.42629 8.8354L8.37577 8.84587L8.3043 8.85861L8.28973 8.86089L8.26925 8.86317L8.25468 8.86226L8.25195 8.85952L8.25605 8.85179L8.25924 8.8486L8.27335 8.84041L8.282 8.8354L8.30976 8.82129L8.32569 8.81355L8.37167 8.79216L8.39716 8.78078L8.46498 8.75028L8.50231 8.73389L8.59608 8.69292L8.64706 8.67108L8.77133 8.61736L8.83779 8.58914L8.99619 8.52132L9.0804 8.48536L9.27796 8.40115L9.38174 8.35745L9.62163 8.25548L9.68444 8.22863L9.81918 8.17173L9.88791 8.14305L10.0345 8.08069L10.1091 8.04928L10.2685 7.98191L10.3495 7.94778L10.5215 7.87494L10.6094 7.83762L10.7951 7.75933L10.8898 7.71927L11.0901 7.6346L11.1916 7.59181L11.4064 7.50123L11.5157 7.4548L11.7456 7.35785L11.8625 7.30869L12.1079 7.2049L12.4943 7.04149L12.604 6.99551L12.8512 6.89082L12.9791 6.83711L13.2609 6.71785L13.4056 6.65685L13.7188 6.52484L13.879 6.45702L14.22 6.31272L14.3939 6.23944L14.7598 6.08467L14.946 6.00638L15.3338 5.84251L15.53 5.75967L15.9365 5.58806L16.1413 5.50112L16.5633 5.32314L16.988 5.14379L17.8702 4.77099L18.3144 4.58345L19.2162 4.20245L19.6673 4.01173L20.5626 3.63346L21.8713 3.08041L22.0839 2.99073L22.5027 2.81366L22.7107 2.72581L23.1185 2.55375L23.3206 2.46817L23.7148 2.30203L23.9097 2.21918L24.2884 2.05941L24.4755 1.98021L24.8364 1.82772L25.0144 1.75261L25.3553 1.60877L25.5233 1.53776L25.8419 1.40302L25.9985 1.33702L26.293 1.21275L26.4373 1.15176L26.7054 1.03842L26.8361 0.983337L27.076 0.882284L27.192 0.833123L27.401 0.744816L27.5011 0.702483L27.6773 0.628287L27.761 0.592782L27.9017 0.533607L27.9677 0.50584L28.071 0.462142L28.1179 0.442113L28.1821 0.415257L28.2317 0.394774L28.401 0.324219L28.5126 0.677903L28.5608 0.829482L28.6341 1.11261L28.6673 1.25281L28.7137 1.53184L28.7342 1.67341L28.7579 1.97475L28.7625 2.05304L28.7679 2.21736L28.7711 2.48092V2.61429L28.762 2.87102L28.7556 2.99847L28.7338 3.24473L28.7206 3.36627L28.6851 3.60388L28.6655 3.72177L28.6159 3.95301L28.589 4.06772L28.5248 4.29486L28.4907 4.40775L28.4115 4.63261L28.3701 4.74504L28.2754 4.96991L28.1152 5.30948L28.061 5.41691L27.9354 5.63449L27.8698 5.74328L27.7237 5.96041L27.6486 6.06874L27.4852 6.28268L27.4019 6.38874L27.2248 6.59494L27.1351 6.69691L26.9476 6.89264L26.8525 6.98823L26.6576 7.16894L26.5598 7.25725L26.3609 7.41975L26.0613 7.63824L25.7022 7.8795L25.5456 7.58362L25.5028 7.50214L25.3931 7.32553L25.3663 7.28365L25.3144 7.20945L25.2461 7.1216L25.2142 7.08473L25.1664 7.03512L25.1446 7.01372L25.1082 6.99142L25.0904 6.98322L25.0545 6.98368L24.9894 7.00462L24.9816 7.0078L24.9434 7.02328L24.9206 7.03238L24.8555 7.05879L24.8196 7.07335L24.7308 7.10886L24.6839 7.12752L24.5747 7.17122L24.5178 7.19398L24.3922 7.24405L24.3275 7.26954L24.1882 7.32507L23.7376 7.50442L23.6443 7.54129L23.4322 7.6255L23.3225 7.6692L23.0821 7.76524L22.9588 7.8144L22.6952 7.92001L22.5614 7.97372L22.2805 8.08615L21.9965 8.19995L21.4006 8.43893L21.1016 8.5591L20.5098 8.79716L20.3642 8.85588L20.0819 8.96968L19.9422 9.02567L19.6764 9.1331L19.5457 9.1859L19.3017 9.28467L19.1829 9.33247L18.9667 9.41987L18.8625 9.4622L18.6799 9.5364L18.593 9.57145L18.4496 9.63016L18.4164 9.64382L18.3581 9.66795L18.3304 9.67887L18.2839 9.69844L18.2621 9.70709L18.2284 9.72166L18.192 9.73668L18.1551 9.75261L18.0909 9.7781L18.0604 9.78994L18.0054 9.80632L17.9521 9.82089L17.857 9.82135L17.8092 9.81725L17.7036 9.7781L17.6749 9.76581L17.6112 9.73304L17.5779 9.71574L17.5015 9.67204Z" fill="#5BE1FE"/>
</g>
<defs>
<clipPath id="clip0_45_118">
<rect width="28.9502" height="32" fill="white"/>
</clipPath>
</defs>
</svg>
